<svg width="373" height="252" viewBox="0 0 373 252" fill="none" xmlns="http://www.w3.org/2000/svg">
<circle cx="50" cy="50" r="50" fill="#4FA175"/>
<path d="M16.69 53.692H21.43V55H15.13V46.6H21.262V47.908H16.69V50.092H20.746V51.376H16.69V53.692ZM32.361 55H30.885L30.873 49.432L28.113 54.04H27.417L24.657 49.504V55H23.169V46.6H24.453L27.789 52.168L31.065 46.6H32.349L32.361 55ZM38.086 46.6C40.294 46.6 41.662 47.728 41.662 49.588C41.662 51.436 40.294 52.576 38.086 52.576H36.19V55H34.63V46.6H38.086ZM38.014 51.256C39.382 51.256 40.09 50.644 40.09 49.588C40.09 48.532 39.382 47.92 38.014 47.92H36.19V51.256H38.014ZM49.0859 55L48.2459 53.056H44.0459L43.2179 55H41.6099L45.3899 46.6H46.9259L50.7179 55H49.0859ZM44.5739 51.832H47.7299L46.1459 48.16L44.5739 51.832ZM53.0683 55V47.92H50.2843V46.6H57.4123V47.92H54.6283V55H53.0683ZM64.4871 46.6H66.0471V55H64.4871V51.4H60.1431V55H58.5831V46.6H60.1431V50.068H64.4871V46.6ZM68.2979 55V46.6H69.8579V55H68.2979ZM73.558 53.68H78.658V55H71.494V53.956L76.438 47.92H71.578V46.6H78.502V47.644L73.558 53.68ZM81.647 53.692H86.387V55H80.087V46.6H86.219V47.908H81.647V50.092H85.703V51.376H81.647V53.692Z" fill="white"/>
<circle cx="176" cy="50" r="50" fill="#326E89"/>
<path d="M153.538 55V46.6H157.21C159.934 46.6 161.794 48.28 161.794 50.8C161.794 53.32 159.934 55 157.21 55H153.538ZM155.098 53.68H157.138C159.01 53.68 160.222 52.54 160.222 50.8C160.222 49.06 159.01 47.92 157.138 47.92H155.098V53.68ZM165.012 53.692H169.752V55H163.452V46.6H169.584V47.908H165.012V50.092H169.068V51.376H165.012V53.692ZM177.623 47.908H173.051V50.464H177.107V51.784H173.051V55H171.491V46.6H177.623V47.908ZM179.132 55V46.6H180.692V55H179.132ZM188.88 46.6H190.428V55H189.144L184.512 49.312V55H182.964V46.6H184.248L188.88 52.288V46.6ZM194.239 53.692H198.979V55H192.679V46.6H198.811V47.908H194.239V50.092H198.295V51.376H194.239V53.692Z" fill="white"/>
<circle cx="302" cy="50" r="50" fill="#9365B0"/>
<path d="M280.323 55V46.6H281.883V55H280.323ZM284.155 55V46.6H287.827C290.551 46.6 292.411 48.28 292.411 50.8C292.411 53.32 290.551 55 287.827 55H284.155ZM285.715 53.68H287.755C289.627 53.68 290.839 52.54 290.839 50.8C290.839 49.06 289.627 47.92 287.755 47.92H285.715V53.68ZM295.629 53.692H300.369V55H294.069V46.6H300.201V47.908H295.629V50.092H299.685V51.376H295.629V53.692ZM308.396 55L307.556 53.056H303.356L302.528 55H300.92L304.7 46.6H306.236L310.028 55H308.396ZM303.884 51.832H307.04L305.456 48.16L303.884 51.832ZM312.379 55V47.92H309.595V46.6H316.723V47.92H313.939V55H312.379ZM319.454 53.692H324.194V55H317.894V46.6H324.026V47.908H319.454V50.092H323.51V51.376H319.454V53.692Z" fill="white"/>
<circle cx="302" cy="181" r="50" fill="#BC851B"/>
<path d="M279.47 186V177.6H283.142C285.866 177.6 287.726 179.28 287.726 181.8C287.726 184.32 285.866 186 283.142 186H279.47ZM281.03 184.68H283.07C284.942 184.68 286.154 183.54 286.154 181.8C286.154 180.06 284.942 178.92 283.07 178.92H281.03V184.68ZM290.944 184.692H295.684V186H289.384V177.6H295.516V178.908H290.944V181.092H295V182.376H290.944V184.692ZM300.027 186.12C298.719 186.12 297.411 185.712 296.715 185.112L297.255 183.9C297.927 184.44 298.995 184.824 300.027 184.824C301.335 184.824 301.887 184.356 301.887 183.732C301.887 181.92 296.895 183.108 296.895 179.988C296.895 178.632 297.975 177.48 300.279 177.48C301.287 177.48 302.343 177.744 303.075 178.224L302.583 179.436C301.827 178.992 300.999 178.776 300.267 178.776C298.971 178.776 298.443 179.28 298.443 179.916C298.443 181.704 303.423 180.54 303.423 183.624C303.423 184.968 302.331 186.12 300.027 186.12ZM304.97 186V177.6H306.53V186H304.97ZM314.538 184.32V181.704H316.014V185.052C315.138 185.76 313.914 186.12 312.726 186.12C310.122 186.12 308.202 184.308 308.202 181.8C308.202 179.292 310.122 177.48 312.75 177.48C314.154 177.48 315.33 177.948 316.122 178.848L315.138 179.808C314.478 179.148 313.722 178.848 312.822 178.848C311.034 178.848 309.774 180.06 309.774 181.8C309.774 183.504 311.034 184.752 312.81 184.752C313.41 184.752 313.998 184.632 314.538 184.32ZM323.987 177.6H325.535V186H324.251L319.619 180.312V186H318.071V177.6H319.355L323.987 183.288V177.6Z" fill="white"/>
<circle cx="176" cy="181" r="50" fill="#AC3E2A"/>
<path d="M142.592 177.6C144.8 177.6 146.168 178.728 146.168 180.588C146.168 182.436 144.8 183.576 142.592 183.576H140.696V186H139.136V177.6H142.592ZM142.52 182.256C143.888 182.256 144.596 181.644 144.596 180.588C144.596 179.532 143.888 178.92 142.52 178.92H140.696V182.256H142.52ZM154.902 186H153.222L151.506 183.54C151.398 183.552 151.29 183.552 151.182 183.552H149.286V186H147.726V177.6H151.182C153.39 177.6 154.758 178.728 154.758 180.588C154.758 181.86 154.11 182.796 152.97 183.24L154.902 186ZM153.186 180.588C153.186 179.532 152.478 178.92 151.11 178.92H149.286V182.268H151.11C152.478 182.268 153.186 181.644 153.186 180.588ZM160.427 186.12C157.823 186.12 155.903 184.284 155.903 181.8C155.903 179.316 157.823 177.48 160.427 177.48C163.031 177.48 164.951 179.304 164.951 181.8C164.951 184.296 163.031 186.12 160.427 186.12ZM160.427 184.752C162.119 184.752 163.379 183.516 163.379 181.8C163.379 180.084 162.119 178.848 160.427 178.848C158.735 178.848 157.475 180.084 157.475 181.8C157.475 183.516 158.735 184.752 160.427 184.752ZM168.191 186V178.92H165.407V177.6H172.535V178.92H169.751V186H168.191ZM177.513 186.12C174.909 186.12 172.989 184.284 172.989 181.8C172.989 179.316 174.909 177.48 177.513 177.48C180.117 177.48 182.037 179.304 182.037 181.8C182.037 184.296 180.117 186.12 177.513 186.12ZM177.513 184.752C179.205 184.752 180.465 183.516 180.465 181.8C180.465 180.084 179.205 178.848 177.513 178.848C175.821 178.848 174.561 180.084 174.561 181.8C174.561 183.516 175.821 184.752 177.513 184.752ZM185.277 186V178.92H182.493V177.6H189.621V178.92H186.837V186H185.277ZM197.587 177.6L194.299 183.036V186H192.739V183.06L189.439 177.6H191.107L193.567 181.692L196.051 177.6H197.587ZM201.947 177.6C204.155 177.6 205.523 178.728 205.523 180.588C205.523 182.436 204.155 183.576 201.947 183.576H200.051V186H198.491V177.6H201.947ZM201.875 182.256C203.243 182.256 203.951 181.644 203.951 180.588C203.951 179.532 203.243 178.92 201.875 178.92H200.051V182.256H201.875ZM208.641 184.692H213.381V186H207.081V177.6H213.213V178.908H208.641V181.092H212.697V182.376H208.641V184.692Z" fill="white"/>
<circle cx="50" cy="181" r="50" fill="#4782C7"/>
<path d="M37.8789 186V178.92H35.0949V177.6H42.2229V178.92H39.4389V186H37.8789ZM44.9536 184.692H49.6936V186H43.3936V177.6H49.5256V178.908H44.9536V181.092H49.0096V182.376H44.9536V184.692ZM54.0367 186.12C52.7287 186.12 51.4207 185.712 50.7247 185.112L51.2647 183.9C51.9367 184.44 53.0047 184.824 54.0367 184.824C55.3447 184.824 55.8967 184.356 55.8967 183.732C55.8967 181.92 50.9047 183.108 50.9047 179.988C50.9047 178.632 51.9847 177.48 54.2887 177.48C55.2967 177.48 56.3527 177.744 57.0847 178.224L56.5927 179.436C55.8367 178.992 55.0087 178.776 54.2767 178.776C52.9807 178.776 52.4527 179.28 52.4527 179.916C52.4527 181.704 57.4327 180.54 57.4327 183.624C57.4327 184.968 56.3407 186.12 54.0367 186.12ZM60.5664 186V178.92H57.7824V177.6H64.9104V178.92H62.1264V186H60.5664Z" fill="white"/>
<path d="M100 49C99.4477 49 99 49.4477 99 50C99 50.5523 99.4477 51 100 51V50V49ZM126.707 50.7071C127.098 50.3166 127.098 49.6834 126.707 49.2929L120.343 42.9289C119.953 42.5384 119.319 42.5384 118.929 42.9289C118.538 43.3195 118.538 43.9526 118.929 44.3431L124.586 50L118.929 55.6569C118.538 56.0474 118.538 56.6805 118.929 57.0711C119.319 57.4616 119.953 57.4616 120.343 57.0711L126.707 50.7071ZM100 50V51H126V50V49H100V50Z" fill="#919191"/>
<path d="M226 49C225.448 49 225 49.4477 225 50C225 50.5523 225.448 51 226 51V50V49ZM252.707 50.7071C253.098 50.3166 253.098 49.6834 252.707 49.2929L246.343 42.9289C245.953 42.5384 245.319 42.5384 244.929 42.9289C244.538 43.3195 244.538 43.9526 244.929 44.3431L250.586 50L244.929 55.6569C244.538 56.0474 244.538 56.6805 244.929 57.0711C245.319 57.4616 245.953 57.4616 246.343 57.0711L252.707 50.7071ZM226 50V51H252V50V49H226V50Z" fill="#919191"/>
<path d="M303 100C303 99.4477 302.552 99 302 99C301.448 99 301 99.4477 301 100H302H303ZM301.293 131.707C301.683 132.098 302.317 132.098 302.707 131.707L309.071 125.343C309.462 124.953 309.462 124.319 309.071 123.929C308.681 123.538 308.047 123.538 307.657 123.929L302 129.586L296.343 123.929C295.953 123.538 295.319 123.538 294.929 123.929C294.538 124.319 294.538 124.953 294.929 125.343L301.293 131.707ZM302 100H301V131H302H303V100H302Z" fill="#919191"/>
<path d="M252 182C252.552 182 253 181.552 253 181C253 180.448 252.552 180 252 180V181V182ZM225.293 180.293C224.902 180.683 224.902 181.317 225.293 181.707L231.657 188.071C232.047 188.462 232.681 188.462 233.071 188.071C233.462 187.681 233.462 187.047 233.071 186.657L227.414 181L233.071 175.343C233.462 174.953 233.462 174.319 233.071 173.929C232.681 173.538 232.047 173.538 231.657 173.929L225.293 180.293ZM252 181V180H226V181V182H252V181Z" fill="#919191"/>
<path d="M126 182C126.552 182 127 181.552 127 181C127 180.448 126.552 180 126 180V181V182ZM99.2929 180.293C98.9024 180.683 98.9024 181.317 99.2929 181.707L105.657 188.071C106.047 188.462 106.681 188.462 107.071 188.071C107.462 187.681 107.462 187.047 107.071 186.657L101.414 181L107.071 175.343C107.462 174.953 107.462 174.319 107.071 173.929C106.681 173.538 106.047 173.538 105.657 173.929L99.2929 180.293ZM126 181V180H100V181V182H126V181Z" fill="#919191"/>
<path d="M51 231C51 230.448 50.5523 230 50 230C49.4477 230 49 230.448 49 231H50H51ZM176.707 230.293C176.317 229.902 175.683 229.902 175.293 230.293L168.929 236.657C168.538 237.047 168.538 237.681 168.929 238.071C169.319 238.462 169.953 238.462 170.343 238.071L176 232.414L181.657 238.071C182.047 238.462 182.681 238.462 183.071 238.071C183.462 237.681 183.462 237.047 183.071 236.657L176.707 230.293ZM70 251V252H156V251V250H70V251ZM156 251V252C167.598 252 177 242.598 177 231H176H175C175 241.493 166.493 250 156 250V251ZM50 231H49C49 242.598 58.402 252 70 252V251V250C59.5066 250 51 241.493 51 231H50Z" fill="#919191"/>
<path d="M177 231C177 230.448 176.552 230 176 230C175.448 230 175 230.448 175 231H176H177ZM302.707 230.293C302.317 229.902 301.683 229.902 301.293 230.293L294.929 236.657C294.538 237.047 294.538 237.681 294.929 238.071C295.319 238.462 295.953 238.462 296.343 238.071L302 232.414L307.657 238.071C308.047 238.462 308.681 238.462 309.071 238.071C309.462 237.681 309.462 237.047 309.071 236.657L302.707 230.293ZM196 251V252H282V251V250H196V251ZM282 251V252C293.598 252 303 242.598 303 231H302H301C301 241.493 292.493 250 282 250V251ZM176 231H175C175 242.598 184.402 252 196 252V251V250C185.507 250 177 241.493 177 231H176Z" fill="#919191"/>
<path d="M352 180C351.448 180 351 180.448 351 181C351 181.552 351.448 182 352 182V181V180ZM351.293 49.2929C350.902 49.6834 350.902 50.3166 351.293 50.7071L357.657 57.0711C358.047 57.4616 358.681 57.4616 359.071 57.0711C359.462 56.6805 359.462 56.0474 359.071 55.6569L353.414 50L359.071 44.3431C359.462 43.9526 359.462 43.3195 359.071 42.9289C358.681 42.5384 358.047 42.5384 357.657 42.9289L351.293 49.2929ZM372 161H373V70H372H371V161H372ZM372 70H373C373 58.402 363.598 49 352 49V50V51C362.493 51 371 59.5066 371 70H372ZM352 181V182C363.598 182 373 172.598 373 161H372H371C371 171.493 362.493 180 352 180V181Z" fill="#919191"/>
</svg>
