<svg width="1568" height="200" viewBox="0 0 1568 200" fill="none" xmlns="http://www.w3.org/2000/svg">
<circle cx="84" cy="116" r="84" fill="#4FA175"/>
<path d="M27.6499 120.82H35.5499V123H25.0499V109H35.2699V111.18H27.6499V114.82H34.4099V116.96H27.6499V120.82ZM53.7684 123H51.3084L51.2884 113.72L46.6884 121.4H45.5284L40.9284 113.84V123H38.4484V109H40.5884L46.1484 118.28L51.6084 109H53.7484L53.7684 123ZM63.3099 109C66.9899 109 69.2699 110.88 69.2699 113.98C69.2699 117.06 66.9899 118.96 63.3099 118.96H60.1499V123H57.5499V109H63.3099ZM63.1899 116.76C65.4699 116.76 66.6499 115.74 66.6499 113.98C66.6499 112.22 65.4699 111.2 63.1899 111.2H60.1499V116.76H63.1899ZM81.6432 123L80.2432 119.76H73.2432L71.8632 123H69.1832L75.4832 109H78.0432L84.3632 123H81.6432ZM74.1232 117.72H79.3832L76.7432 111.6L74.1232 117.72ZM88.2805 123V111.2H83.6405V109H95.5205V111.2H90.8805V123H88.2805ZM107.312 109H109.912V123H107.312V117H100.072V123H97.4718V109H100.072V114.78H107.312V109ZM113.663 123V109H116.263V123H113.663ZM122.43 120.8H130.93V123H118.99V121.26L127.23 111.2H119.13V109H130.67V110.74L122.43 120.8ZM135.912 120.82H143.812V123H133.312V109H143.532V111.18H135.912V114.82H142.672V116.96H135.912V120.82Z" fill="white"/>
<circle cx="364" cy="116" r="84" fill="#326E89"/>
<path d="M327.064 123V109H333.184C337.724 109 340.824 111.8 340.824 116C340.824 120.2 337.724 123 333.184 123H327.064ZM329.664 120.8H333.064C336.184 120.8 338.204 118.9 338.204 116C338.204 113.1 336.184 111.2 333.064 111.2H329.664V120.8ZM346.187 120.82H354.087V123H343.587V109H353.807V111.18H346.187V114.82H352.947V116.96H346.187V120.82ZM367.205 111.18H359.585V115.44H366.345V117.64H359.585V123H356.985V109H367.205V111.18ZM369.72 123V109H372.32V123H369.72ZM385.967 109H388.547V123H386.407L378.687 113.52V123H376.107V109H378.247L385.967 118.48V109ZM394.898 120.82H402.798V123H392.298V109H402.518V111.18H394.898V114.82H401.658V116.96H394.898V120.82Z" fill="white"/>
<circle cx="644" cy="116" r="84" fill="#9365B0"/>
<path d="M608.372 123V109H610.972V123H608.372ZM614.759 123V109H620.879C625.419 109 628.519 111.8 628.519 116C628.519 120.2 625.419 123 620.879 123H614.759ZM617.359 120.8H620.759C623.879 120.8 625.899 118.9 625.899 116C625.899 113.1 623.879 111.2 620.759 111.2H617.359V120.8ZM633.882 120.82H641.782V123H631.282V109H641.502V111.18H633.882V114.82H640.642V116.96H633.882V120.82ZM655.161 123L653.761 119.76H646.761L645.381 123H642.701L649.001 109H651.561L657.881 123H655.161ZM647.641 117.72H652.901L650.261 111.6L647.641 117.72ZM661.798 123V111.2H657.158V109H669.038V111.2H664.398V123H661.798ZM673.589 120.82H681.489V123H670.989V109H681.209V111.18H673.589V114.82H680.349V116.96H673.589V120.82Z" fill="white"/>
<circle cx="924" cy="116" r="84" fill="#BC851B"/>
<path d="M886.116 123V109H892.236C896.776 109 899.876 111.8 899.876 116C899.876 120.2 896.776 123 892.236 123H886.116ZM888.716 120.8H892.116C895.236 120.8 897.256 118.9 897.256 116C897.256 113.1 895.236 111.2 892.116 111.2H888.716V120.8ZM905.24 120.82H913.14V123H902.64V109H912.86V111.18H905.24V114.82H912V116.96H905.24V120.82ZM920.378 123.2C918.198 123.2 916.018 122.52 914.858 121.52L915.758 119.5C916.878 120.4 918.658 121.04 920.378 121.04C922.558 121.04 923.478 120.26 923.478 119.22C923.478 116.2 915.158 118.18 915.158 112.98C915.158 110.72 916.958 108.8 920.798 108.8C922.478 108.8 924.238 109.24 925.458 110.04L924.638 112.06C923.378 111.32 921.998 110.96 920.778 110.96C918.618 110.96 917.738 111.8 917.738 112.86C917.738 115.84 926.038 113.9 926.038 119.04C926.038 121.28 924.218 123.2 920.378 123.2ZM928.616 123V109H931.216V123H928.616ZM944.563 120.2V115.84H947.023V121.42C945.563 122.6 943.523 123.2 941.543 123.2C937.203 123.2 934.003 120.18 934.003 116C934.003 111.82 937.203 108.8 941.583 108.8C943.923 108.8 945.883 109.58 947.203 111.08L945.563 112.68C944.463 111.58 943.203 111.08 941.703 111.08C938.723 111.08 936.623 113.1 936.623 116C936.623 118.84 938.723 120.92 941.683 120.92C942.683 120.92 943.663 120.72 944.563 120.2ZM960.312 109H962.892V123H960.752L953.032 113.52V123H950.452V109H952.592L960.312 118.48V109Z" fill="white"/>
<circle cx="1204" cy="116" r="84" fill="#AC3E2A"/>
<path d="M1148.82 109C1152.5 109 1154.78 110.88 1154.78 113.98C1154.78 117.06 1152.5 118.96 1148.82 118.96H1145.66V123H1143.06V109H1148.82ZM1148.7 116.76C1150.98 116.76 1152.16 115.74 1152.16 113.98C1152.16 112.22 1150.98 111.2 1148.7 111.2H1145.66V116.76H1148.7ZM1169.34 123H1166.54L1163.68 118.9C1163.5 118.92 1163.32 118.92 1163.14 118.92H1159.98V123H1157.38V109H1163.14C1166.82 109 1169.1 110.88 1169.1 113.98C1169.1 116.1 1168.02 117.66 1166.12 118.4L1169.34 123ZM1166.48 113.98C1166.48 112.22 1165.3 111.2 1163.02 111.2H1159.98V116.78H1163.02C1165.3 116.78 1166.48 115.74 1166.48 113.98ZM1178.55 123.2C1174.21 123.2 1171.01 120.14 1171.01 116C1171.01 111.86 1174.21 108.8 1178.55 108.8C1182.89 108.8 1186.09 111.84 1186.09 116C1186.09 120.16 1182.89 123.2 1178.55 123.2ZM1178.55 120.92C1181.37 120.92 1183.47 118.86 1183.47 116C1183.47 113.14 1181.37 111.08 1178.55 111.08C1175.73 111.08 1173.63 113.14 1173.63 116C1173.63 118.86 1175.73 120.92 1178.55 120.92ZM1191.49 123V111.2H1186.85V109H1198.73V111.2H1194.09V123H1191.49ZM1207.02 123.2C1202.68 123.2 1199.48 120.14 1199.48 116C1199.48 111.86 1202.68 108.8 1207.02 108.8C1211.36 108.8 1214.56 111.84 1214.56 116C1214.56 120.16 1211.36 123.2 1207.02 123.2ZM1207.02 120.92C1209.84 120.92 1211.94 118.86 1211.94 116C1211.94 113.14 1209.84 111.08 1207.02 111.08C1204.2 111.08 1202.1 113.14 1202.1 116C1202.1 118.86 1204.2 120.92 1207.02 120.92ZM1219.96 123V111.2H1215.32V109H1227.2V111.2H1222.56V123H1219.96ZM1240.48 109L1235 118.06V123H1232.4V118.1L1226.9 109H1229.68L1233.78 115.82L1237.92 109H1240.48ZM1247.75 109C1251.43 109 1253.71 110.88 1253.71 113.98C1253.71 117.06 1251.43 118.96 1247.75 118.96H1244.59V123H1241.99V109H1247.75ZM1247.63 116.76C1249.91 116.76 1251.09 115.74 1251.09 113.98C1251.09 112.22 1249.91 111.2 1247.63 111.2H1244.59V116.76H1247.63ZM1258.9 120.82H1266.8V123H1256.3V109H1266.52V111.18H1258.9V114.82H1265.66V116.96H1258.9V120.82Z" fill="white"/>
<circle cx="1484" cy="116" r="84" fill="#4782C7"/>
<path d="M1463.8 123V111.2H1459.16V109H1471.04V111.2H1466.4V123H1463.8ZM1475.59 120.82H1483.49V123H1472.99V109H1483.21V111.18H1475.59V114.82H1482.35V116.96H1475.59V120.82ZM1490.73 123.2C1488.55 123.2 1486.37 122.52 1485.21 121.52L1486.11 119.5C1487.23 120.4 1489.01 121.04 1490.73 121.04C1492.91 121.04 1493.83 120.26 1493.83 119.22C1493.83 116.2 1485.51 118.18 1485.51 112.98C1485.51 110.72 1487.31 108.8 1491.15 108.8C1492.83 108.8 1494.59 109.24 1495.81 110.04L1494.99 112.06C1493.73 111.32 1492.35 110.96 1491.13 110.96C1488.97 110.96 1488.09 111.8 1488.09 112.86C1488.09 115.84 1496.39 113.9 1496.39 119.04C1496.39 121.28 1494.57 123.2 1490.73 123.2ZM1501.61 123V111.2H1496.97V109H1508.85V111.2H1504.21V123H1501.61Z" fill="white"/>
<path d="M168 114.5C167.172 114.5 166.5 115.172 166.5 116C166.5 116.828 167.172 117.5 168 117.5V116V114.5ZM281.061 117.061C281.646 116.475 281.646 115.525 281.061 114.939L271.515 105.393C270.929 104.808 269.979 104.808 269.393 105.393C268.808 105.979 268.808 106.929 269.393 107.515L277.879 116L269.393 124.485C268.808 125.071 268.808 126.021 269.393 126.607C269.979 127.192 270.929 127.192 271.515 126.607L281.061 117.061ZM168 116V117.5H280V116V114.5H168V116Z" fill="#919191"/>
<path d="M448 114.5C447.172 114.5 446.5 115.172 446.5 116C446.5 116.828 447.172 117.5 448 117.5V116V114.5ZM561.061 117.061C561.646 116.475 561.646 115.525 561.061 114.939L551.515 105.393C550.929 104.808 549.979 104.808 549.393 105.393C548.808 105.979 548.808 106.929 549.393 107.515L557.879 116L549.393 124.485C548.808 125.071 548.808 126.021 549.393 126.607C549.979 127.192 550.929 127.192 551.515 126.607L561.061 117.061ZM448 116V117.5H560V116V114.5H448V116Z" fill="#919191"/>
<path d="M728 114.5C727.172 114.5 726.5 115.172 726.5 116C726.5 116.828 727.172 117.5 728 117.5V116V114.5ZM841.061 117.061C841.646 116.475 841.646 115.525 841.061 114.939L831.515 105.393C830.929 104.808 829.979 104.808 829.393 105.393C828.808 105.979 828.808 106.929 829.393 107.515L837.879 116L829.393 124.485C828.808 125.071 828.808 126.021 829.393 126.607C829.979 127.192 830.929 127.192 831.515 126.607L841.061 117.061ZM728 116V117.5H840V116V114.5H728V116Z" fill="#919191"/>
<path d="M1008 114.5C1007.17 114.5 1006.5 115.172 1006.5 116C1006.5 116.828 1007.17 117.5 1008 117.5V116V114.5ZM1121.06 117.061C1121.65 116.475 1121.65 115.525 1121.06 114.939L1111.51 105.393C1110.93 104.808 1109.98 104.808 1109.39 105.393C1108.81 105.979 1108.81 106.929 1109.39 107.515L1117.88 116L1109.39 124.485C1108.81 125.071 1108.81 126.021 1109.39 126.607C1109.98 127.192 1110.93 127.192 1111.51 126.607L1121.06 117.061ZM1008 116V117.5H1120V116V114.5H1008V116Z" fill="#919191"/>
<path d="M1288 114.5C1287.17 114.5 1286.5 115.172 1286.5 116C1286.5 116.828 1287.17 117.5 1288 117.5V116V114.5ZM1401.06 117.061C1401.65 116.475 1401.65 115.525 1401.06 114.939L1391.51 105.393C1390.93 104.808 1389.98 104.808 1389.39 105.393C1388.81 105.979 1388.81 106.929 1389.39 107.515L1397.88 116L1389.39 124.485C1388.81 125.071 1388.81 126.021 1389.39 126.607C1389.98 127.192 1390.93 127.192 1391.51 126.607L1401.06 117.061ZM1288 116V117.5H1400V116V114.5H1288V116Z" fill="#919191"/>
<path d="M1482.5 32C1482.5 32.8284 1483.17 33.5 1484 33.5C1484.83 33.5 1485.5 32.8284 1485.5 32H1484H1482.5ZM1202.94 33.0607C1203.53 33.6464 1204.47 33.6464 1205.06 33.0607L1214.61 23.5147C1215.19 22.9289 1215.19 21.9792 1214.61 21.3934C1214.02 20.8076 1213.07 20.8076 1212.49 21.3934L1204 29.8787L1195.51 21.3934C1194.93 20.8076 1193.98 20.8076 1193.39 21.3934C1192.81 21.9792 1192.81 22.9289 1193.39 23.5147L1202.94 33.0607ZM1484 32H1485.5V22H1484H1482.5V32H1484ZM1464 2V0.5H1224V2V3.5H1464V2ZM1204 22H1202.5V32H1204H1205.5V22H1204ZM1224 2V0.5C1212.13 0.5 1202.5 10.1259 1202.5 22H1204H1205.5C1205.5 11.7827 1213.78 3.5 1224 3.5V2ZM1484 22H1485.5C1485.5 10.1259 1475.87 0.5 1464 0.5V2V3.5C1474.22 3.5 1482.5 11.7827 1482.5 22H1484Z" fill="#919191"/>
<path d="M1202.5 32C1202.5 32.8284 1203.17 33.5 1204 33.5C1204.83 33.5 1205.5 32.8284 1205.5 32H1204H1202.5ZM922.939 33.0607C923.525 33.6464 924.475 33.6464 925.061 33.0607L934.607 23.5147C935.192 22.9289 935.192 21.9792 934.607 21.3934C934.021 20.8076 933.071 20.8076 932.485 21.3934L924 29.8787L915.515 21.3934C914.929 20.8076 913.979 20.8076 913.393 21.3934C912.808 21.9792 912.808 22.9289 913.393 23.5147L922.939 33.0607ZM1204 32H1205.5V22H1204H1202.5V32H1204ZM1184 2V0.5H944V2V3.5H1184V2ZM924 22H922.5V32H924H925.5V22H924ZM944 2V0.5C932.126 0.5 922.5 10.1259 922.5 22H924H925.5C925.5 11.7827 933.783 3.5 944 3.5V2ZM1204 22H1205.5C1205.5 10.1259 1195.87 0.5 1184 0.5V2V3.5C1194.22 3.5 1202.5 11.7827 1202.5 22H1204Z" fill="#919191"/>
<path d="M922.5 32C922.5 32.8284 923.172 33.5 924 33.5C924.828 33.5 925.5 32.8284 925.5 32H924H922.5ZM642.939 33.0607C643.525 33.6464 644.475 33.6464 645.061 33.0607L654.607 23.5147C655.192 22.9289 655.192 21.9792 654.607 21.3934C654.021 20.8076 653.071 20.8076 652.485 21.3934L644 29.8787L635.515 21.3934C634.929 20.8076 633.979 20.8076 633.393 21.3934C632.808 21.9792 632.808 22.9289 633.393 23.5147L642.939 33.0607ZM924 32H925.5V22H924H922.5V32H924ZM904 2V0.5H664V2V3.5H904V2ZM644 22H642.5V32H644H645.5V22H644ZM664 2V0.5C652.126 0.5 642.5 10.1259 642.5 22H644H645.5C645.5 11.7827 653.783 3.5 664 3.5V2ZM924 22H925.5C925.5 10.1259 915.874 0.5 904 0.5V2V3.5C914.217 3.5 922.5 11.7827 922.5 22H924Z" fill="#919191"/>
</svg>
